<svg fill="none" height="19" viewBox="0 0 16 19" width="16" xmlns="http://www.w3.org/2000/svg"><path d="m8.00744 18.9115c-.07738 0-.17411-.0162-.29018-.0484-.10962-.0322-.22247-.0806-.33854-.1451-1.30903-.7287-2.41493-1.3767-3.31771-1.9442-.89633-.561-1.61855-1.1091-2.16667-1.6443-.54811-.5353-.947912-1.1124-1.1994-1.7314-.245039-.6191-.367559-1.3445-.367559-2.1764v-6.96426c0-.51587.106399-.88988.319196-1.12202.219246-.23215.535223-.43527.947913-.60938.26439-.10962.64807-.25793 1.15105-.44494.50297-.19345 1.04464-.39658 1.625-.60937.58035-.2128 1.12202-.40625 1.625-.58036.50297-.180556.88665-.3063 1.15104-.377232.12897-.038691.26761-.074157.41592-.106399.14831-.03869.29663-.058036.44494-.058036.14186 0 .28695.016121.43527.048363.14831.025794.29018.064485.42559.116072.25794.083829.6384.216022 1.1414.396577.5094.174105 1.0511.367555 1.625.580355.5803.20635 1.122.40303 1.625.59003.5094.18701.8931.33532 1.151.44494.4256.18056.7416.38691.9479.61905.2128.22569.3192.59648.3192 1.11235v6.96426c0 .8319-.1257 1.5605-.3772 2.186-.245.6191-.6416 1.1962-1.1897 1.7314-.5417.5353-1.2639 1.0834-2.1667 1.6444-.8963.5674-1.99901 1.2123-3.30804 1.9345-.11607.0645-.23214.1129-.34821.1451-.10963.0322-.20313.0484-.28051.0484zm0-1.8088c.07093 0 .14509-.0161.22247-.0484.07738-.0258.18378-.0774.3192-.1547 1.04464-.6384 1.92159-1.1833 2.63099-1.6347.7093-.4579 1.2767-.8899 1.7023-1.2961.4256-.4063.7287-.8512.9093-1.3349.187-.4836.2805-1.0704.2805-1.7604v-6.32588c0-.16121-.0194-.28051-.0581-.35789s-.1225-.14186-.2515-.19345c-.2772-.09673-.5997-.20957-.9672-.33854-.3611-.12897-.7416-.26439-1.1414-.40625-.3933-.14187-.7899-.28373-1.1897-.4256-.3934-.14831-.76738-.28695-1.12204-.41592-.34821-.13542-.65451-.25471-.9189-.35789-.08383-.03224-.16121-.05481-.23214-.0677-.07093-.01935-.13219-.02902-.18378-.02902-.05804 0-.12252.00967-.19345.02902-.06449.01289-.14187.03546-.23215.0677-.25793.10318-.56423.21925-.91889.34822-.34822.12897-.72223.26438-1.12203.40625-.3998.13542-.80283.27406-1.20908.41592-.3998.14187-.78025.28051-1.14136.41592-.35467.13542-.67064.25472-.94792.35789-.12897.05159-.2128.11607-.25149.19345s-.05803.19668-.05803.35789v6.32588c0 .69.09027 1.2736.27083 1.7508.187.4771.49008.9221.90922 1.3348.4256.4062.99306.8383 1.70239 1.2961.70932.4578 1.58953 1.006 2.64062 1.6444.13542.0773.24182.1289.3192.1547.08383.0323.16121.0484.23214.0484zm-.99628-3.5886c-.16121 0-.3063-.0354-.43527-.1064-.12897-.0709-.25471-.187-.37723-.3482l-2.19568-2.6793c-.14832-.1934-.22247-.39334-.22247-.59969 0-.2128.07093-.39336.21279-.54167.14832-.14831.32887-.22247.54167-.22247.13542 0 .25794.02579.36756.07738s.21925.14831.32887.29018l1.75074 2.24407 3.69496-5.92934c.187-.29018.4159-.43527.6867-.43527.1999 0 .3805.06449.5417.19346.1612.12896.2418.29985.2418.51264 0 .10963-.0225.21603-.0677.3192-.0451.10318-.0967.1999-.1547.29018l-4.13993 6.48063c-.187.3031-.44494.4546-.77381.4546z" fill="#fff"/></svg>