<svg width="16" height="17" viewBox="0 0 16 17" fill="none" xmlns="http://www.w3.org/2000/svg">
<path d="M1.93676 16.6347C1.43378 16.6347 1.04043 16.5218 0.756696 16.2961C0.472966 16.0769 0.331101 15.7738 0.331101 15.3869C0.331101 14.7937 0.508432 14.1746 0.863095 13.5298C1.22421 12.8785 1.74008 12.2691 2.41071 11.7016C3.08135 11.1342 3.89062 10.6731 4.83854 10.3185C5.79291 9.95734 6.86334 9.77679 8.04985 9.77679C9.23636 9.77679 10.3036 9.95734 11.2515 10.3185C12.1994 10.6731 13.0087 11.1342 13.6793 11.7016C14.3564 12.2691 14.8723 12.8785 15.2269 13.5298C15.5816 14.1746 15.7589 14.7937 15.7589 15.3869C15.7589 15.7738 15.6171 16.0769 15.3333 16.2961C15.0496 16.5218 14.6595 16.6347 14.1629 16.6347H1.93676ZM8.05952 8.15179C7.39534 8.15179 6.78274 7.97445 6.22173 7.61979C5.66716 7.25868 5.22222 6.77183 4.8869 6.15923C4.55159 5.54663 4.38393 4.8631 4.38393 4.10863C4.38393 3.36062 4.55159 2.68998 4.8869 2.09673C5.22222 1.49702 5.67039 1.02307 6.2314 0.674852C6.79241 0.320189 7.40179 0.142858 8.05952 0.142858C8.71726 0.142858 9.32341 0.316965 9.87798 0.665179C10.4325 1.00695 10.8775 1.47768 11.2128 2.07738C11.5546 2.67064 11.7254 3.34127 11.7254 4.08929C11.7254 4.8502 11.5546 5.54018 11.2128 6.15923C10.8775 6.77183 10.4325 7.25868 9.87798 7.61979C9.32341 7.97445 8.71726 8.15179 8.05952 8.15179Z" fill="white"/>
</svg>
