<svg width="19" height="19" viewBox="0 0 19 19" fill="none" xmlns="http://www.w3.org/2000/svg">
<path d="M17.6295 18.186L0.741071 1.29762C0.599206 1.1622 0.528274 0.994545 0.528274 0.794644C0.528274 0.588295 0.599206 0.417412 0.741071 0.281995C0.882936 0.14013 1.05382 0.0724216 1.25372 0.07887C1.45362 0.07887 1.62128 0.146578 1.7567 0.281995L18.6354 17.1607C18.7837 17.3026 18.8547 17.4702 18.8482 17.6637C18.8482 17.8636 18.7773 18.0345 18.6354 18.1763C18.5064 18.3182 18.342 18.3891 18.1421 18.3891C17.9422 18.3956 17.7713 18.3279 17.6295 18.186ZM9.35937 2.37128C8.8693 2.37128 8.42435 2.51959 8.02455 2.81622C7.6312 3.11285 7.34102 3.5062 7.15402 3.99628L6.01265 2.84524C6.36731 2.25198 6.83805 1.77803 7.42485 1.42336C8.01166 1.06225 8.6565 0.881697 9.35937 0.881697C10.0945 0.881697 10.7619 1.0687 11.3616 1.44271C11.9678 1.81672 12.4482 2.32292 12.8028 2.96131C13.1639 3.5997 13.3445 4.30903 13.3445 5.08929C13.3445 5.79861 13.1962 6.45635 12.8996 7.0625C12.6029 7.66865 12.2096 8.1684 11.7195 8.56176L10.6362 7.47842C10.9779 7.23338 11.252 6.90129 11.4583 6.48214C11.6647 6.063 11.7679 5.59871 11.7679 5.08929C11.7679 4.57341 11.6582 4.11235 11.439 3.7061C11.2197 3.2934 10.9296 2.96776 10.5685 2.72917C10.2073 2.49058 9.80431 2.37128 9.35937 2.37128ZM14.1763 16.4159L15.6466 17.8765C15.5499 17.8829 15.4563 17.8894 15.3661 17.8958C15.2758 17.9023 15.1791 17.9055 15.0759 17.9055H3.63318C2.09846 17.9055 1.3311 17.3993 1.3311 16.3869C1.3311 15.8194 1.49231 15.2197 1.81473 14.5878C2.13715 13.9559 2.60144 13.3562 3.20759 12.7887C3.81374 12.2148 4.54886 11.7279 5.41295 11.3281C6.27703 10.9283 7.25074 10.6801 8.33408 10.5833L9.7753 12.0149C9.70436 12.0084 9.63343 12.0052 9.5625 12.0052C9.49157 12.0052 9.42386 12.0052 9.35937 12.0052C8.32763 12.0052 7.41518 12.1503 6.62202 12.4405C5.82887 12.7307 5.15823 13.0982 4.61012 13.5432C4.062 13.9881 3.64608 14.4459 3.36235 14.9167C3.08507 15.3874 2.94643 15.8065 2.94643 16.1741C2.94643 16.2579 2.97222 16.3192 3.02381 16.3579C3.0754 16.3966 3.156 16.4159 3.26562 16.4159H14.1763Z" fill="white"/>
</svg>
